<svg version="1.2" xmlns="http://www.w3.org/2000/svg" viewBox="0 0 180 163" width="180" height="163"><defs><clipPath clipPathUnits="userSpaceOnUse" id="cp1"><path d="m29 23.85h126.41v128.15h-126.41z"/></clipPath><clipPath clipPathUnits="userSpaceOnUse" id="cp2"><path d="m29 44h95v114.85h-95z"/></clipPath></defs><style>.a{fill:#302d2d}.b{fill:#5ce1e6}.c{fill:#0097b2}.d{fill:#ff3131}</style><path class="a" d="m0 73.6l0.6-2.7 14.7 3.6 1.1-4.4 2.4 0.6-1.7 7.1z"/><path fill-rule="evenodd" class="a" d="m10 56.3q-2-1-2.5-2.4-0.5-1.5 0.4-3.3 0.9-1.9 2.4-2.3 1.5-0.5 3.4 0.5l8.2 4.1q1.9 1 2.4 2.5 0.6 1.4-0.4 3.3-0.9 1.8-2.4 2.2-1.5 0.5-3.4-0.5zm9.6 1.7q0.8 0.5 1.3 0.3 0.6-0.2 0.8-0.7 0.3-0.6 0.2-1.1-0.2-0.6-1-1l-8.5-4.3q-0.9-0.4-1.4-0.2-0.5 0.1-0.8 0.7-0.3 0.6-0.1 1.1 0.1 0.5 1 1z"/><path fill-rule="evenodd" class="a" d="m36.8 40l-1.8 2.1-2.7-1.7-2.2 2.6 2.1 2.4-1.7 2-11.5-13.6 2.6-3.1zm-8.3 1.2l1.7-2-7.6-4.8z"/><path class="a" d="m38.2 22.1l7.4 10.4-2 1.4-10.2-14.3 2.8-2 8.4 6.9-6.1-8.6 2-1.4 10.2 14.3-2.3 1.7z"/><path class="a" d="m77.3 12l0.5 2.3q0.4 2.1-0.4 3.4-0.7 1.3-2.7 1.8-2 0.4-3.3-0.5-1.2-0.9-1.7-3l-1.9-8.9q-0.5-2.1 0.3-3.4 0.8-1.4 2.8-1.8 2-0.4 3.2 0.5 1.3 0.8 1.7 2.9l0.4 1.7-2.6 0.5-0.4-1.8q-0.2-0.9-0.6-1.2-0.5-0.3-1.1-0.2-0.6 0.1-1 0.6-0.3 0.5-0.1 1.4l2.1 9.3q0.2 0.9 0.6 1.2 0.5 0.3 1.1 0.2 0.7-0.2 0.9-0.6 0.4-0.5 0.2-1.4l-0.6-2.5z"/><path fill-rule="evenodd" class="a" d="m88.3 4.1q0-2.1 1.1-3.2 1.1-1.1 3.2-1.1 2 0.1 3.1 1.2 1 1.2 1 3.3l-0.3 9.2q0 2.1-1.1 3.2-1.1 1.1-3.1 1.1-2.1-0.1-3.1-1.2-1.1-1.2-1-3.3zm2.5 9.3q0 1 0.4 1.4 0.3 0.4 1 0.4 0.6 0 1-0.3 0.4-0.4 0.5-1.4l0.2-9.5q0-0.9-0.4-1.3-0.4-0.4-1-0.5-0.7 0-1.1 0.4-0.3 0.4-0.4 1.3z"/><path class="a" d="m112.9 15.7l5.3-11.5 3.7 1.1-4.9 16.9-2.6-0.7 3.6-12.1-5.4 11.5-2.5-0.7 1.5-12.5-3.5 11.9-2.3-0.7 4.9-16.8 3.7 1z"/><path class="a" d="m133.4 25l8.3-9.5 3.3 2.1-9.5 14.8-2.2-1.4 6.8-10.6-8.4 9.6-2.2-1.4 4.9-11.6-6.6 10.5-2.1-1.3 9.5-14.8 3.2 2z"/><path fill-rule="evenodd" class="a" d="m148.9 45.5l-1.9-2.1 2-2.5-2.3-2.5-2.7 1.8-1.7-1.8 14.9-9.8 2.8 3zm-0.2-8.5l1.8 2 5.7-7z"/><path class="a" d="m166.5 49.1l-11.2 6-1.2-2.2 15.5-8.3 1.6 3.1-7.9 7.4 9.3-4.9 1.1 2.1-15.5 8.4-1.3-2.5z"/><path fill-rule="evenodd" class="a" d="m178.8 65.5l1.1 4.2q0.5 2-0.3 3.3-0.8 1.3-2.9 1.8l-8.6 2.2q-2.1 0.5-3.4-0.2-1.3-0.7-1.8-2.7l-1.1-4.3zm-1.8 3.3l-12.2 3.1 0.4 1.5q0.2 0.7 0.7 0.9 0.4 0.3 1.3 0.1l8.9-2.3q0.9-0.2 1.2-0.7 0.3-0.4 0.1-1.1z"/><path class="a" d="m26.5 125.7l-1.7-2.6-2.1 1.4 2 3.1-0.7 0.4-2.5-3.9 6.1-3.9 2.5 3.8-0.7 0.4-1.9-3-2 1.3 1.7 2.6z"/><path class="a" d="m32.2 131.3l3.2-0.5 0.7 0.9-4.2 0.5-1.3 4.2-0.7-0.9 1-3.2-3.3 0.5-0.8-0.9 4.4-0.6 1.3-4 0.7 0.8z"/><path fill-rule="evenodd" class="a" d="m36.9 138.8l-1.9 2.1-0.7-0.7 4.9-5.3 2 1.8q0.9 0.8 1 1.7 0.1 0.9-0.6 1.6-0.7 0.8-1.6 0.8-0.9 0-1.8-0.9zm0.5-0.6l1.3 1.2q0.6 0.5 1.1 0.5 0.6 0 1-0.5 0.5-0.4 0.4-1 0-0.6-0.5-1.1l-1.3-1.2z"/><path class="a" d="m43.7 147l2.8 2-0.5 0.6-3.6-2.5 4.2-5.9 0.8 0.5z"/><path fill-rule="evenodd" class="a" d="m57 152q-0.5 1-1.2 1.5-0.6 0.6-1.4 0.6-0.8 0.1-1.6-0.3-0.7-0.4-1.1-1.1-0.4-0.7-0.4-1.5 0.1-0.9 0.6-1.8l0.2-0.5q0.5-0.9 1.2-1.4 0.7-0.6 1.5-0.7 0.8 0 1.5 0.4 0.8 0.4 1.2 1.1 0.4 0.7 0.3 1.5 0 0.9-0.5 1.9zm-0.7-0.9q0.7-1.1 0.5-2-0.1-0.8-0.9-1.3-0.8-0.4-1.6 0-0.8 0.3-1.4 1.4l-0.3 0.5q-0.5 1.1-0.4 2 0.1 0.8 0.9 1.3 0.9 0.4 1.6 0 0.8-0.3 1.4-1.4z"/><path fill-rule="evenodd" class="a" d="m64.2 155.5l-1.7-0.6-1 2.8-0.9-0.4 2.6-6.8 2.2 0.8q1.2 0.5 1.6 1.2 0.4 0.8 0 1.8-0.2 0.6-0.7 1-0.5 0.3-1.2 0.3l0.5 3.5v0.1l-1-0.4zm-1.3-1.3l1.4 0.5q0.7 0.2 1.2 0 0.5-0.2 0.7-0.8 0.3-0.6 0-1.1-0.3-0.4-1-0.7l-1.3-0.5z"/><path class="a" d="m75.4 158.3l-3.1-0.8-0.6 2.5 3.6 0.9-0.2 0.7-4.5-1 1.7-7.1 4.4 1-0.2 0.8-3.5-0.8-0.5 2.3 3 0.7z"/><path class="a" d="m89.3 159.5l2-3.6h1l-2.5 4.5-0.1 2.7h-1l0.1-2.7-2.4-4.6h1.1z"/><path fill-rule="evenodd" class="a" d="m102.5 158.9q0.1 1.1-0.1 1.9-0.3 0.8-0.9 1.3-0.6 0.5-1.5 0.6-0.8 0.1-1.5-0.2-0.8-0.4-1.2-1.1-0.5-0.7-0.6-1.8v-0.5q-0.1-1 0.1-1.8 0.3-0.9 0.9-1.4 0.6-0.5 1.5-0.6 0.8-0.1 1.5 0.3 0.8 0.3 1.2 1 0.4 0.8 0.6 1.9zm-1-0.4q-0.2-1.3-0.8-1.9-0.5-0.6-1.5-0.5-0.9 0.1-1.3 0.8-0.5 0.8-0.3 2v0.5q0.1 1.3 0.8 1.9 0.6 0.7 1.5 0.6 0.9-0.1 1.3-0.9 0.5-0.7 0.3-2z"/><path class="a" d="m111.6 152.9l1.3 4.8q0.2 1-0.3 1.8-0.4 0.8-1.5 1.2h-0.2q-1.2 0.3-2-0.1-0.8-0.5-1.1-1.6l-1.2-4.8 0.9-0.2 1.2 4.8q0.2 0.7 0.7 1 0.5 0.4 1.3 0.1 0.8-0.1 1.1-0.7 0.3-0.5 0.1-1.3l-1.2-4.7z"/><path fill-rule="evenodd" class="a" d="m120.3 154.5l-1.6 0.6 1.1 2.7-0.9 0.4-2.7-6.8 2.2-0.9q1.1-0.4 2-0.2 0.8 0.3 1.2 1.3 0.2 0.6 0.1 1.2-0.2 0.7-0.7 1.1l2.8 2.2v0.1l-1 0.4zm-1.9-0.1l1.4-0.6q0.7-0.2 0.9-0.7 0.3-0.5 0.1-1.1-0.3-0.6-0.8-0.8-0.5-0.2-1.2 0.1l-1.4 0.5z"/><path class="a" d="m134.5 149.4l2.9-1.9 0.4 0.7-3.6 2.4-4.1-6 0.9-0.6z"/><path fill-rule="evenodd" class="a" d="m144 138.7q0.8 0.8 1 1.7 0.2 0.8 0 1.6-0.2 0.7-0.9 1.3-0.6 0.6-1.4 0.7-0.8 0.1-1.6-0.3-0.7-0.3-1.4-1.1l-0.4-0.4q-0.6-0.8-0.9-1.6-0.3-0.8 0-1.6 0.2-0.8 0.8-1.4 0.7-0.5 1.5-0.6 0.7-0.1 1.5 0.2 0.8 0.4 1.6 1.2zm-1.1 0.2q-0.8-0.9-1.7-1.1-0.8-0.2-1.5 0.4-0.7 0.6-0.6 1.5 0 0.8 0.8 1.8l0.4 0.4q0.8 0.9 1.6 1.1 0.9 0.2 1.6-0.4 0.7-0.6 0.7-1.4-0.1-0.9-0.9-1.8z"/><path fill-rule="evenodd" class="a" d="m151.5 133l-2 2.3 0.9 1.8-0.6 0.7-3.7-6.9 0.6-0.6 7.3 2.7-0.6 0.7zm-2.4 1.6l1.6-1.9-3.4-1.3z"/><path class="a" d="m160.2 124.1l-0.5 0.8h-6.7l4.7 3.1-0.6 0.8-6.1-4 0.6-0.8h6.7l-4.7-3.1 0.5-0.8z"/><g clip-path="url(#cp1)"><path fill-rule="evenodd" class="b" d="m29.6 86.8c0-34.8 28.2-63 63-63 34.7 0 62.9 28.2 62.9 63 0 21.2-10.4 39.9-26.4 51.3-0.1 0.1 7.7 13.5 7.7 13.5l-8.2-13.5-8.6-17-5.6-3.4 6.1-3.5-6-4.4 18.2 3.4-12.7-21-10.2-2.7c-3.4-9.5-8.8-18.1-17.1-24.5-3.7-2.8-7.9-5.1-12.4-6.6-1.8-0.6-3.9-1.2-5.8-1.4l-1.9-0.2-0.7 1.7c-0.8 1.7-1.4 3.9-1.7 5.7-1 4.7-1.1 9.5-0.5 14.1 1.4 10.3 6.1 19.4 12.7 27.1l-2.8 10.2 11.8 21.5 6.2-17.6 0.8 7.5 6.1-3.5 0.1 6.5 10.3 15.7q-0.2 0.1-0.5 0.2c-6.8 2.5-14.1 3.9-21.8 3.9-34.8 0-63-28.2-63-63zm83.7 33.1l-1.5-0.6 1.4-0.8c0 0 0.1 1.4 0.1 1.4zm-7.5 2.8l1.4-0.8-0.2 1.7c0 0-1.2-0.9-1.2-0.9z"/></g><g clip-path="url(#cp2)"><path fill-rule="evenodd" class="c" d="m29.6 86.8c0-16.2 6.1-30.9 16.1-42.1 0 0.3-19.9 67.3 43.5 88.4l2.2 4 1-3c5.3 1.6 11 2.8 17.4 3.7l13.9 21.1-9.3-13c-6.8 2.5-14.1 3.9-21.8 3.9-34.8 0-63-28.2-63-63z"/></g><path fill-rule="evenodd" class="c" d="m98.9 117.1c-38-27.8-24.7-57.5-24.7-57.5 0 0 32.4 3.3 37.5 50.1zm-16.5-43.2c-4.2 2.4-5.7 7.8-3.3 12 2.5 4.3 7.9 5.7 12.1 3.3 4.2-2.5 5.7-7.9 3.3-12.1-2.5-4.2-7.9-5.7-12.1-3.2zm41.5 71.8l-14.5-21.7 0.4-2.7 2.4 1zm-23.4-22.8l-0.5-4 12.6-7.3 3.2 2.4c0 0-15.3 8.9-15.3 8.9zm9.3-30.7l8.6 2.3 9.2 15.2-13.8-2.6c0 0-1.8-9.5-4-14.9zm-1 36.1l7.8 15.3-9.4-14.4-0.1-2.2c0 0 1.7 1.3 1.7 1.3zm-13.3-10.6l-4.6 13.1-8.6-15.5 2.4-8.5c3.5 4.6 10.8 10.9 10.8 10.9zm20.6 4.1q0 0 0 0zm1.9 1.2l7.8 15.3-9.4-14.4c0 0-0.3-2.1-0.3-2.1z"/><path class="c" d="m95.4 43.6q0 0.8 0.2 1.6 0.1 0.9 0.5 1.6 0.3 0.8 0.7 1.5 0.5 0.7 1.1 1.3 0.6 0.6 1.3 1 0.7 0.5 1.4 0.8 0.8 0.3 1.6 0.5 0.8 0.1 1.7 0.1 0.8 0 1.6-0.1 0.8-0.2 1.6-0.5 0.8-0.3 1.5-0.8 0.6-0.4 1.2-1 0.6-0.6 1.1-1.3 0.4-0.7 0.8-1.5 0.3-0.7 0.4-1.6 0.2-0.8 0.2-1.6 0-0.8-0.2-1.6-0.1-0.9-0.4-1.6-0.4-0.8-0.8-1.5-0.5-0.7-1.1-1.3-0.6-0.6-1.2-1-0.7-0.5-1.5-0.8-0.8-0.3-1.6-0.5-0.8-0.1-1.6-0.1-0.9 0-1.7 0.1-0.8 0.2-1.6 0.5-0.7 0.3-1.4 0.8-0.7 0.4-1.3 1-0.6 0.6-1.1 1.3-0.4 0.7-0.7 1.5-0.4 0.7-0.5 1.6-0.2 0.8-0.2 1.6z"/><path class="c" d="m117.2 71.2q0 0.6 0.1 1.2 0.1 0.5 0.3 1.1 0.2 0.5 0.6 1 0.3 0.5 0.7 0.9 0.4 0.4 0.9 0.7 0.5 0.3 1 0.5 0.5 0.3 1.1 0.4 0.6 0.1 1.1 0.1 0.6 0 1.2-0.1 0.5-0.1 1.1-0.4 0.5-0.2 1-0.5 0.5-0.3 0.9-0.7 0.4-0.4 0.7-0.9 0.3-0.5 0.6-1 0.2-0.6 0.3-1.1 0.1-0.6 0.1-1.2 0-0.6-0.1-1.1-0.1-0.6-0.3-1.1-0.3-0.6-0.6-1-0.3-0.5-0.7-0.9-0.4-0.4-0.9-0.8-0.5-0.3-1-0.5-0.6-0.2-1.1-0.3-0.6-0.2-1.2-0.2-0.5 0-1.1 0.2-0.6 0.1-1.1 0.3-0.5 0.2-1 0.5-0.5 0.4-0.9 0.8-0.4 0.4-0.7 0.9-0.4 0.4-0.6 1-0.2 0.5-0.3 1.1-0.1 0.5-0.1 1.1z"/><path fill-rule="evenodd" class="d" d="m108.7 108.1l-1.4-2.3 1.3-0.8 1.3 2.4z"/><path fill-rule="evenodd" class="c" d="m108.6 105l-1.3 0.8h-0.5l1.2-0.7z"/><path fill-rule="evenodd" class="b" d="m107.3 105.8l1.4 2.3-0.6 0.1-1.3-2.4z"/><path fill-rule="evenodd" class="d" d="m106.8 109.2l-1.6-2.8 1.2-0.8 1.7 2.9z"/><path fill-rule="evenodd" class="c" d="m106.4 105.6l-1.2 0.8h-0.6l1.2-0.7z"/><path fill-rule="evenodd" class="b" d="m105.2 106.4l1.6 2.8-0.5 0.1-1.7-2.9z"/><path fill-rule="evenodd" class="d" d="m105 110.3l-2.1-3.5 1.2-0.8 2.1 3.6z"/><path fill-rule="evenodd" class="c" d="m104.1 106l-1.2 0.8h-0.6l1.2-0.7z"/><path fill-rule="evenodd" class="b" d="m102.9 106.8l2.1 3.5-0.6 0.1-2.1-3.6z"/><path fill-rule="evenodd" class="d" d="m103 111.4l-2.6-4.4 1.2-0.8 2.7 4.5z"/><path fill-rule="evenodd" class="c" d="m101.6 106.2l-1.2 0.8h-0.6l1.3-0.7z"/><path fill-rule="evenodd" class="b" d="m100.4 107l2.6 4.4-0.5 0.1-2.7-4.5z"/><path fill-rule="evenodd" class="d" d="m101.2 112.5l-3.3-5.6 1.2-0.7 3.3 5.6z"/><path fill-rule="evenodd" class="c" d="m99.1 106.2l-1.2 0.7-0.6 0.1 1.2-0.7z"/><path fill-rule="evenodd" class="b" d="m97.9 106.9l3.3 5.6-0.6 0.1-3.3-5.6z"/><path fill-rule="evenodd" class="d" d="m99.3 113.7l-4.1-7 1.2-0.8 4.1 7z"/><path fill-rule="evenodd" class="c" d="m96.4 105.9l-1.2 0.8h-0.6l1.2-0.7z"/><path fill-rule="evenodd" class="b" d="m95.2 106.7l4.1 7h-0.6l-4.1-7z"/><path fill-rule="evenodd" class="d" d="m97.4 114.8l-5.1-8.6 1.3-0.8 5 8.6z"/><path fill-rule="evenodd" class="c" d="m93.6 105.4l-1.3 0.8h-0.5l1.2-0.7z"/><path fill-rule="evenodd" class="b" d="m92.3 106.2l5.1 8.6h-0.6l-5-8.6z"/></svg>