<svg version="1.2" xmlns="http://www.w3.org/2000/svg" viewBox="0 0 289 208" width="289" height="208"><defs><clipPath clipPathUnits="userSpaceOnUse" id="cp1"><path d="m0.5 55h288v74h-288z"/></clipPath><clipPath clipPathUnits="userSpaceOnUse" id="cp2"><path d="m224-2.75h50v49.75h-50z"/></clipPath></defs><style>.a{fill:#0097b2}.b{fill:none;stroke:#231f20;stroke-width:8.5}.c{fill:#fff}.d{fill:none;stroke:#231f20;stroke-width:2}</style><path fill-rule="evenodd" class="a" d="m38.1 101.4c0.6-26.8 11.3-51.9 30.3-70.9 19.6-19.6 45.6-30.3 73.3-30.3 27.7 0 53.8 10.7 73.3 30.3 18.9 18.9 29.6 43.8 30.3 70.4q0.2 1.3 0.2 2.7 0 0.2-0.1 0.3c0 57.1-46.5 103.6-103.7 103.6-27.7 0-53.7-10.8-73.3-30.4-19.6-19.5-30.3-45.6-30.3-73.3q0 0 0 0-0.1-0.1-0.1-0.2 0-1.1 0.1-2.2zm30.4-68.4q4.3-3.1 9.5-5.6 2.2-3.8 5-6.9c-5.2 3.7-10.1 7.9-14.5 12.5zm145.3-1.3c-4.1-4.1-8.6-7.9-13.4-11.2q2.8 3.1 5.1 6.8 5.2 2.6 9.5 5.7-0.6-0.7-1.2-1.3zm29.2 60.6q-0.4-4.3-1.2-8.5 0.1 3 0.1 6.1 0.6 1.2 1.1 2.4zm0.7 11.5c0-0.9 0-1.9-0.1-2.8q-0.4-3.8-1.9-7.5c-0.4 6.8-1.5 13.7-3.4 20.4q2.8 5.5 3.2 11.2c1.4-6.9 2.2-14 2.2-21.3zm-29.9 72.1c0.3-0.2 0.5-0.5 0.8-0.8q-1.2 1-2.4 1.9-0.3 0.6-0.7 1.1c0.8-0.7 1.6-1.4 2.3-2.2zm-144.2 0q1.2 1.1 2.3 2.2-0.4-0.6-0.7-1.1-1.2-0.9-2.4-1.9 0.4 0.4 0.8 0.8zm-26.8-84.6c0.2 7 1.3 13.9 3.1 20.8q2.4-4 6.3-7.8 1.2-1.3 2.6-2.5-0.2-0.8-0.4-1.6-2.4-10.4-2.6-20.4c-3.9 3.6-6.9 7.5-9 11.5zm0.8-15.3q-0.8 6-0.9 11.9 2.5-3.9 6.3-7.7 1.3-1.3 2.8-2.6c0.1-7 1.1-13.8 2.9-20.2-3.6 3.3-6.5 6.9-8.5 10.7q-1.4 3.9-2.6 7.9zm30-39.6c-4.9 2.6-9.2 5.4-12.9 8.6q-2.1 4.3-3.7 8.9c3.9-3.2 8.6-6.2 13.9-8.8q1.1-4.6 2.7-8.7zm3.3-7.2c-4.2 2.2-8 4.6-11.2 7.3q-2 2.9-3.7 6 5.3-4.1 12.2-7.6 1.2-3 2.7-5.7zm1.9-1q-1.7 2.8-3.1 5.9 4.5-2.1 9.5-4 4.1-1.5 8.5-2.8 1-3 2.3-5.8c-6.2 1.9-12 4.1-17.2 6.7zm1.1-1.8c5.1-2.4 10.7-4.5 16.8-6.2q2.9-5.7 7-9.9c-4 1.2-7.7 2.6-11.1 4.2q-2.3 1.3-4.5 2.6c-3.1 2.6-5.9 5.7-8.2 9.3zm18.3-6.7c6.3-1.7 13-3 19.9-4 1.1-3.6 2.3-6.9 3.9-9.4-5.6 0.8-11 1.9-16 3.3-3.1 2.8-5.7 6.2-7.8 10.1zm26.1-16.3c-5.7 0.9-11.1 2.4-16.4 4.2q0 0.2 0 0.4c4.7-1.3 9.8-2.3 15-3q0.7-0.9 1.4-1.6zm51.3 4.2c-5.3-1.9-10.8-3.3-16.4-4.2q0.7 0.7 1.4 1.6 7.8 1 15 2.9 0-0.1 0-0.3zm-14.2-1.3c1.6 2.5 2.9 5.7 3.9 9.4 7 1 13.7 2.3 20 4q-3.3-6-7.9-10.1c-5-1.4-10.4-2.6-16-3.3zm43.3 21.9c-5.2-2.6-11-4.8-17.2-6.7q1.3 2.8 2.3 5.8 4.4 1.3 8.5 2.8 5 1.9 9.4 4-1.3-3.1-3-5.9zm1.9 0.9q1.5 2.8 2.7 5.8c4.6 2.3 8.7 4.8 12.2 7.6q-1.7-3.1-3.7-6c-3.3-2.7-7-5.1-11.2-7.4zm19.9 24.7c-1.1-3.1-2.3-6-3.8-8.9-3.6-3.1-7.9-6-12.8-8.5q1.5 4 2.7 8.6c5.2 2.6 9.9 5.6 13.9 8.8zm14.2 34.1q0-5.9-0.8-11.8-1.2-4.1-2.7-8.1c-2-3.8-4.8-7.5-8.5-10.8 1.9 6.5 2.9 13.3 3 20.4q1.5 1.3 2.8 2.6 3.8 3.8 6.2 7.7zm-3.2 24.6c1.9-7 3-14.1 3.2-21.2q-2.6-5.1-7.4-9.9-0.8-0.8-1.7-1.6c0 6.6-0.9 13.5-2.5 20.4q-0.2 0.9-0.5 1.8 1.3 1.1 2.4 2.3 4 3.9 6.5 8.2zm-0.5 1.5q-2.4-4.6-6.8-9-0.9-0.9-1.9-1.7-1.5 5.7-3.7 11.3 1.3 1.2 2.6 2.4 3.7 3.8 6.1 7.7 2.2-5.3 3.7-10.7zm3.4 12.6q0-5.7-2.6-11.1-1.6 5.3-3.8 10.4 2.6 5 3.1 10.2 1.7-3.6 3.2-7.5 0.1-1 0.1-2zm-3.2 13.2q0.8-2.2 1.5-4.4-0.7 1.6-1.5 3.1 0 0.6 0 1.3zm-25.8 36.4c1.5-2.7 2.4-5.5 2.6-8.4-6.6 5.6-13.4 10.1-20.1 13.5q-0.1 2.6-1.1 5.1c6.5-2.6 12.8-5.9 18.6-10.2zm-18.5 15.8c-2 0.9-4.1 1.6-6.2 2.2q-1.8 1.6-4 3 0.1 0 0.2-0.1 5.2-2.2 10-5.1zm-102.4 0q4.9 2.9 10 5.1 0 0 0.1 0-2.2-1.3-4-2.9-3.1-0.9-6.1-2.2zm-18.4-15.8c5.7 4.2 12.1 7.6 18.5 10.2q-1-2.5-1-5.1c-6.7-3.5-13.6-7.9-20.1-13.5 0.2 2.9 1.1 5.7 2.6 8.4zm-27.4-40.9q0.7 2.2 1.6 4.5-0.1-0.7-0.1-1.4-0.8-1.5-1.5-3.1zm10.4-32.3c-3.7 3.3-6.7 6.9-8.8 10.6q1.6 5.6 3.9 11.1 2.4-4 6.1-7.7 1.2-1.2 2.6-2.4-2.2-5.8-3.8-11.6zm1-0.8q1.5 5.8 3.7 11.6c4.1-3.4 8.9-6.5 14.3-9.2q-1.7-6.1-2.9-12.2c-5.8 2.9-10.9 6.2-15.1 9.8zm0.3-46.3c-2.1 6.6-3.2 13.5-3.4 20.7 4.4-3.7 9.7-7 15.6-10q-0.1-1.2 0-2.4c0.1-6.3 0.8-12.2 2-17.6-5.5 2.8-10.2 5.9-14.2 9.3zm1.2-9.5q1-1.1 2.2-2.1 0.9-1.9 2-3.7-2.2 2.8-4.2 5.8zm35.6-17.8c-6.6 1.9-12.7 4.3-18.1 7-1.1 2.8-2.1 5.7-2.8 8.8q3.3-1.6 6.9-3.1c3.8-1.5 7.7-2.9 11.9-4.1q0.8-4.6 2.1-8.6zm1.4-0.4q-1.4 4-2.3 8.7c7.3-2.1 15-3.7 23-4.8q0.5-4.4 1.1-8.5c-7.7 1.1-15 2.6-21.8 4.6zm2.9-7.1q-1.4 2.7-2.5 5.8c6.8-1.9 14.1-3.4 21.6-4.4q0.6-3 1.2-5.6c-7.1 1-14 2.4-20.3 4.2zm43.7-16.2c-6.1 0.1-12 0.5-17.7 1.2-1.7 2.4-3.1 5.6-4.2 9.5 7-0.9 14.4-1.4 21.9-1.4zm18.8 1.1c-5.7-0.7-11.6-1.1-17.7-1.1v9.2c7.5 0 14.9 0.5 21.9 1.4-1.1-3.8-2.5-7.1-4.2-9.5zm28.5 20.9q-1.1-3.1-2.5-5.9c-6.3-1.8-13.2-3.2-20.3-4.2q0.6 2.7 1.2 5.6c7.5 1 14.7 2.5 21.6 4.5zm0.4 1.2c-6.8-2-14.1-3.5-21.8-4.5q0.6 4 1.1 8.4c8.1 1.1 15.8 2.7 23 4.8q-0.9-4.7-2.3-8.7zm19.5 7.4c-5.5-2.7-11.5-5-18.2-7 0.9 2.7 1.6 5.6 2.2 8.6 6.8 2 13.1 4.4 18.8 7.2q-1.2-4.6-2.8-8.8zm17.6 10.8q-2.1-3-4.3-5.8 1 1.8 2 3.7 1.2 1 2.3 2.1zm4.5 30.2c-0.2-7.2-1.4-14.2-3.4-20.9-4-3.4-8.8-6.5-14.2-9.3 1.2 5.5 1.9 11.5 2 17.9q0 1.2 0 2.4c5.9 2.9 11.2 6.3 15.6 9.9zm-6.8 37.3c1.4-3.8 2.6-7.6 3.6-11.4-4.1-3.7-9.2-7-15.1-9.9q-1.1 6-2.9 12c5.5 2.8 10.3 5.9 14.4 9.3zm-0.5 1.1c-4-3.4-8.8-6.5-14.2-9.3q-1.6 5.4-3.6 10.8c5.1 2.5 9.6 5.4 13.4 8.6q2.5-5 4.4-10.1zm9.5 11q-2.4-4.2-6.3-8.1-1.1-1.1-2.2-2.1-2.1 5.1-4.6 10c0.9 0.8 1.7 1.5 2.5 2.3q3.6 3.6 5.8 7.4 2.7-4.6 4.8-9.5zm-39.9 54.7q-0.1-2.9-1.4-5.6c-7.1 4.5-14.7 8.4-23 11.6q0.6 1.2 0.7 2.5c6.4-1.2 14.8-4 23.7-8.5zm-1.5 6.3q1.3-2.5 1.5-5.1c-8.9 4.5-17.3 7.2-23.6 8.5q-0.1 1.1-0.5 2.2c7-0.9 14.9-2.7 22.6-5.6zm-13 11.5c2.1-1 4-2.2 5.7-3.5-6.2 1.7-12.5 2.4-18.4 2q-1.1 1-2.6 2c6.6 0.7 10.5 0.7 15.3-0.5zm-56.9 5.3c6.6 1.4 13.4 2 20.3 2q4.8 0 9.4-0.4-1.2-0.7-2.3-1.8-3.4 0.5-7.1 0.5c-4.9 0-9.6-0.7-13.7-1.9-2.2 0.9-4.3 1.4-6.6 1.6zm-22-8.8q2.6 1.9 5.7 3.5c4.9 1.2 8.8 1.2 15.4 0.5q-1.5-1-2.6-2c-5.9 0.4-12.2-0.3-18.5-2zm-8.7-13.1q0.2 2.6 1.4 5.1c7.8 2.9 15.6 4.7 22.7 5.6q-0.4-1.1-0.5-2.2c-6.4-1.3-14.7-4-23.6-8.5zm0-1.2c8.9 4.5 17.2 7.3 23.6 8.5q0.1-1.3 0.7-2.5c-8.2-3.2-15.8-7.1-22.9-11.6-0.9 1.8-1.4 3.7-1.4 5.6zm-40.6-53.4c-1.7 3.5-2.7 7.2-2.7 10.9 1.4 2.9 3 5.5 4.6 8.1q0.4-4.9 2.9-9.6-2.7-4.6-4.8-9.4zm9.2-11.5c-3.6 3.2-6.5 6.6-8.5 10.2q2.1 4.9 4.7 9.5 2.3-3.8 5.9-7.4 1.2-1.2 2.4-2.3-2.5-5-4.5-10zm15.2-10c-5.5 2.7-10.3 5.8-14.3 9.2q2 5.1 4.5 10.1c3.8-3.2 8.3-6.1 13.3-8.6q-1.9-5.3-3.5-10.7zm1-0.5q1.6 5.3 3.6 10.7c5.3-2.6 11.2-4.9 17.7-6.7q-1.5-5.6-2.7-11.1c-6.8 2-13 4.4-18.6 7.1zm-3.3-13.4q1.3 6.1 3 12.2c5.6-2.7 11.9-5.1 18.7-7.1q-1.4-6.3-2.3-12.5c-7.1 2.1-13.6 4.6-19.4 7.4zm-2.5-23.9c0.1 7.4 0.8 15 2.3 22.7 5.9-2.8 12.4-5.3 19.4-7.3-1.2-8-1.8-15.7-2-23-7.2 2.2-13.8 4.7-19.7 7.6zm21.2-29.4c-6.9 2.1-13.3 4.5-19 7.4-1.3 5.6-2.1 11.7-2.2 18.3q0 0.9 0 1.8c5.9-2.9 12.6-5.4 19.7-7.5-0.1-4.1 0.1-8 0.4-11.8q0.4-4.3 1.1-8.2zm24.3-5.3c-8.1 1.2-15.9 2.8-23.1 5q-0.8 4-1.2 8.6-0.4 5.5-0.4 11.4c7.5-2.1 15.5-3.8 24-4.9-0.1-6.7 0.2-13.6 0.7-20.1zm1-0.1c-0.5 6.1-0.8 12.9-0.8 20.1 8.3-1.1 16.9-1.7 25.8-1.7v-20.1c-8.6 0-17 0.6-25 1.7zm1.3-9.7c-0.5 2.7-0.9 5.5-1.2 8.5 8.1-1.1 16.4-1.6 24.9-1.6v-8.4c-8.2 0-16.1 0.5-23.7 1.5zm23.7-8.2c-7.7 0.1-15.1 0.6-22.3 1.5q-0.7 2.6-1.2 5.6c7.6-1 15.4-1.5 23.5-1.6zm24.6 7q-0.6-2.9-1.3-5.5c-7.1-1-14.6-1.4-22.2-1.5v5.5c8 0 15.9 0.5 23.5 1.5zm1.3 9.6q-0.4-4.4-1.1-8.4c-7.6-1-15.5-1.6-23.7-1.6v8.4c8.5 0.1 16.9 0.6 24.8 1.6zm0.2 1.2c-8-1-16.4-1.6-25-1.6v20.1c8.8 0 17.5 0.6 25.8 1.6 0-7.1-0.3-13.9-0.8-20.1zm24.1 5c-7.2-2.1-15-3.7-23.1-4.9 0.5 6.5 0.7 13.4 0.7 20.2 8.4 1.1 16.5 2.8 24 4.9q0-5.9-0.4-11.5-0.4-4.6-1.2-8.7zm22.4 28c0-0.6 0-1.2 0-1.8-0.2-6.7-0.9-12.9-2.2-18.6-5.7-2.8-12.1-5.3-19-7.3q0.7 4 1.1 8.4 0.5 5.6 0.4 11.8c7.1 2.1 13.7 4.6 19.7 7.5zm-2.3 24.7c1.4-7.8 2.2-15.5 2.3-22.8-5.9-3-12.6-5.5-19.7-7.6-0.2 7.2-0.8 15-2.1 23 7.1 2.1 13.6 4.6 19.5 7.4zm-3.2 13.3q1.7-6 2.9-12.1-7.6-3.7-16.8-6.6-1.2-0.4-2.5-0.8c-0.7 4.1-1.4 8.2-2.3 12.4 6.8 2 13.1 4.4 18.7 7.1zm-3.9 11.9q2-5.4 3.6-10.8c-5.6-2.7-11.9-5.1-18.6-7.1q-1.2 5.5-2.7 11.1c6.4 1.9 12.4 4.2 17.7 6.8zm-0.4 1c-5.3-2.6-11.2-4.8-17.6-6.7q-1.5 5.8-3.3 11.7-2.1 6.6-4.4 12.9c5.2 1.5 10 3.3 14.4 5.4q4.1-7.1 7.5-14.9c1.2-2.7 2.4-5.6 3.4-8.4zm14.2 9.1c-3.7-3.2-8.1-6-13.1-8.6q-1.6 4.2-3.5 8.4-3.4 7.7-7.5 14.9c3.9 2.1 7.5 4.3 10.5 6.8 5.3-6.9 9.9-14.1 13.6-21.5zm-5.9 30.4c5.2-5.4 9.8-11.4 13.8-17.8q0.6-1 1.2-2.1-2.2-3.9-6-7.7-1.1-1.1-2.2-2.1c-3.8 7.4-8.4 14.7-13.7 21.6q1.1 0.9 2 1.8 3 3.1 4.9 6.3zm-20.5 17c7.2-4.7 13.8-10.1 19.7-16.1q-1.8-3.3-4.9-6.4-0.9-0.9-1.9-1.7-0.1 0.1-0.2 0.3c-5.3 6.7-11.1 12.9-17.3 18.4q0.6 0.6 1.2 1.1 2.1 2.2 3.4 4.4zm-23.9 12.1c8.2-3.1 15.9-7 23-11.5q-1.3-2.1-3.3-4.2-0.6-0.6-1.3-1.1c-6.5 5.7-13.4 10.6-20.4 14.4q0.1 0.1 0.3 0.2 1 1.1 1.7 2.2zm-75.3-11.5c7.1 4.5 14.7 8.4 23 11.5q0.7-1.1 1.7-2.2 0.1-0.1 0.3-0.2c-7-3.8-13.9-8.7-20.5-14.5-1.9 1.7-3.4 3.5-4.5 5.4zm-20.6-16.7c5.8 6 12.4 11.4 19.7 16.1q1.3-2.3 3.4-4.4 0.6-0.5 1.2-1.1c-6.2-5.5-12-11.7-17.3-18.4q-0.2-0.2-0.3-0.3c-2.8 2.5-5.1 5.2-6.7 8.1zm-7.6-30.6c-3.5 3.1-6.3 6.4-8.2 9.8 0.4 0.7 0.8 1.4 1.2 2.1q6 9.6 13.8 17.8c1.2-2.2 2.8-4.3 4.9-6.3q0.9-0.9 1.9-1.8c-5.3-6.9-9.8-14.2-13.6-21.6zm14-9.2c-5 2.5-9.5 5.4-13.2 8.5 3.8 7.4 8.4 14.6 13.7 21.5 3-2.5 6.5-4.7 10.5-6.8q-4.1-7.2-7.5-14.9-1.9-4.1-3.5-8.3zm18.7-7.2c-6.5 1.8-12.4 4.1-17.6 6.6q1.6 4.3 3.4 8.4 3.4 7.8 7.5 14.9c4.4-2.1 9.2-3.9 14.4-5.4q-2.3-6.3-4.4-12.9c-1.2-3.9-2.3-7.8-3.3-11.6zm1.1-0.3c2.3 8.4 4.9 16.7 7.8 24.4 5.1-1.4 10.5-2.5 16.2-3.3-1.4-8-2.8-16.5-3.9-25.2-7.1 0.9-13.8 2.3-20.1 4.1zm-2.9-12.2q1.2 5.5 2.6 11c6.4-1.8 13.2-3.1 20.2-4.1-0.4-3.7-0.9-7.6-1.3-11.4-7.6 1.1-14.8 2.6-21.5 4.5zm-2.6-13.7q1 6.2 2.3 12.5c6.8-1.9 14.1-3.4 21.7-4.4q-0.3-2.8-0.5-5.6c-0.2-2.1-0.4-4.6-0.6-7.2-8.1 1.1-15.8 2.7-22.9 4.7zm21.8-29.1c-8.5 1.1-16.5 2.8-24 5 0.2 7.4 0.9 15.1 2.1 22.9 7.1-2 14.8-3.6 22.9-4.6-0.5-6.8-0.9-14.9-1-23.3zm26.7-1.8c-8.9 0-17.6 0.6-25.8 1.7 0.1 7.4 0.4 15.3 1 23.2 8-1 16.3-1.5 24.8-1.5zm26.9 1.6c-8.3-1.1-17-1.6-25.8-1.6v23.3c8.5 0.1 16.8 0.6 24.8 1.7 0.6-8 0.9-15.9 1-23.4zm22.8 28.2c1.2-7.8 1.9-15.6 2.1-23.1-7.5-2.1-15.6-3.8-24-5-0.1 8.5-0.5 16.6-1 23.4 8.1 1.1 15.8 2.7 22.9 4.7zm-2.4 13.6q1.3-6.2 2.2-12.4c-7.2-2.1-14.8-3.7-22.8-4.8q-0.3 4-0.6 7.2-0.2 2.8-0.5 5.6c7.6 1 14.9 2.5 21.7 4.4zm-2.9 12.2q1.4-5.5 2.6-11.1c-6.7-1.9-14-3.4-21.5-4.4q-0.7 5.7-1.4 11.4c7.1 1 13.9 2.3 20.3 4.1zm-8.1 25.6c2.8-7.8 5.5-16 7.8-24.5-6.3-1.8-13.1-3.1-20.1-4.1-1.2 8.8-2.5 17.3-4 25.3 5.7 0.8 11.2 1.9 16.3 3.3zm-0.4 1.1c-5-1.4-10.4-2.5-16.1-3.3-1.6 8.6-3.3 16.5-5.1 23.4 4 0.5 7.8 1.3 11.4 2.3 3.4-6.6 6.7-14.2 9.8-22.4zm15.4 5.7c-4.3-2.1-9-3.9-14.2-5.4-3.1 8.2-6.4 15.8-9.8 22.5q5.2 1.5 9.6 3.7c5.3-6.4 10.1-13.4 14.4-20.8zm-6.2 26c6.2-5.5 12-11.7 17.3-18.5q0.2-0.1 0.3-0.3c-3-2.4-6.5-4.7-10.4-6.7-4.3 7.4-9.1 14.4-14.4 20.8q4.1 2.1 7.2 4.7zm-30.1 10.6q2.4 0.7 4.4 1.7c6-4.9 11.5-10.6 16.7-16.7-2.8-1.3-5.9-2.5-9.3-3.5-3.9 7.6-8 13.9-11.8 18.5zm-7.5-1.6q3.3 0.4 6.3 1.2c3.8-4.3 7.8-10.7 11.8-18.4-3.5-1-7.3-1.8-11.2-2.3-2.3 8.3-4.6 15.1-6.9 19.5zm-6.4-0.5q2.7 0 5.2 0.3c2.3-4.4 4.7-11.1 7-19.5-3.9-0.5-8-0.7-12.2-0.8zm-1.1 0v-19.9c-4.2 0-8.3 0.3-12.2 0.8 2.2 8.3 4.6 15.1 7 19.5q2.5-0.3 5.2-0.4zm-6.4 0.5c-2.3-4.4-4.6-11.1-6.9-19.5-3.9 0.6-7.7 1.3-11.2 2.3 4 7.8 8 14.1 11.8 18.5q3-0.9 6.3-1.3zm-7.5 1.6c-3.8-4.5-7.9-10.9-11.8-18.5q-5.1 1.6-9.3 3.6c5.1 6.1 10.7 11.7 16.7 16.6q2-0.9 4.4-1.7zm-37.3-36c-4 2-7.5 4.2-10.4 6.6q0.1 0.2 0.3 0.4c5.2 6.7 11.1 12.9 17.3 18.4 2-1.7 4.5-3.3 7.2-4.7-5.3-6.4-10.1-13.3-14.4-20.7zm15.2-5.9c-5.2 1.5-10 3.3-14.2 5.4 4.3 7.4 9.1 14.3 14.4 20.7 2.9-1.4 6.1-2.7 9.6-3.7-3.4-6.7-6.7-14.3-9.8-22.4zm17.3-3.6c-5.7 0.7-11.1 1.8-16.1 3.2 3.1 8.2 6.4 15.8 9.8 22.5 3.6-1 7.4-1.8 11.4-2.4-1.8-6.9-3.5-14.8-5.1-23.3zm0.9-0.2c1.6 8.6 3.4 16.5 5.2 23.4 4.1-0.5 8.3-0.8 12.6-0.8v-23.7c-6.2 0-12.1 0.4-17.8 1.1zm-4.2-26.3c1.2 8.7 2.5 17.2 4 25.2 5.8-0.7 11.8-1.1 18-1.2v-25.5c-7.6 0.1-15 0.5-22 1.5zm-1.5-12.6q0.7 5.8 1.4 11.4c7.1-0.9 14.5-1.4 22.1-1.4v-11.5c-8.1 0-16 0.6-23.5 1.5zm23.5-15.5c-8.6 0-16.8 0.6-24.7 1.6 0.3 4.2 0.7 8.5 1.1 12.8 7.6-1 15.5-1.5 23.6-1.5zm24.7 14.4q0.6-6.4 1.1-12.8c-8-1-16.3-1.6-24.7-1.6v12.9c8.1 0 16 0.5 23.6 1.5zm-1.5 12.5q0.7-5.7 1.3-11.4c-7.5-1-15.3-1.5-23.4-1.5v11.5c7.6 0 15 0.5 22.1 1.4zm-4.1 26.4c1.5-8 2.8-16.6 4-25.3-7.1-0.9-14.5-1.4-22-1.4v25.5c6.2 0 12.2 0.4 18 1.2zm-18 23.6c4.3 0.1 8.5 0.4 12.5 0.9 1.9-6.9 3.7-14.8 5.3-23.4-5.7-0.7-11.7-1.1-17.8-1.1zm-20.5 25.4c-5.9-5-11.5-10.6-16.7-16.7-2.7 1.4-5.1 2.9-7.1 4.5 6.6 5.8 13.5 10.6 20.4 14.4q1.5-1.2 3.4-2.2zm43.2 2.2c7-3.7 13.9-8.6 20.4-14.3q-3-2.5-7.1-4.6c-5.1 6.1-10.7 11.7-16.6 16.7q1.9 1 3.3 2.2zm-2.9 21.4c-2.3-0.2-4.4-0.7-6.6-1.6q-2.5 0.7-5.3 1.2 1.6 1.4 3.3 1.7c2.9-0.3 5.7-0.7 8.6-1.3zm5.4-13.8q0-2.8-2.5-5.4c-4.3-4.3-13.5-7.1-23.3-7.1-14.2 0-25.7 5.6-25.7 12.5 0 1.8 0.8 3.6 2.5 5.3 4.3 4.3 13.4 7.1 23.2 7.1 9.8 0 19-2.8 23.3-7.1 1.6-1.7 2.5-3.5 2.5-5.3zm-99.1-24.6q0.3-4 2.2-7.8c-5.3-5.6-10.1-11.7-14.1-18.3q-0.5-0.7-0.9-1.5c-1.6 3.3-2.5 6.7-2.5 10.1 4.5 6.8 9.8 12.6 15.3 17.5zm21.2 14.7q0.2-2.9 1.5-5.6c-7.2-4.7-13.8-10.1-19.7-16.1q-1.8 3.9-1.9 8c6.5 5.7 13.4 10.2 20.1 13.7zm7.6 13.2c6.6 1.9 13.4 2.9 19.6 2.6q-0.9-1-1.5-2.1c-6.9-0.8-14.6-2.5-22.3-5.3q1.2 1.8 2.9 3.5c0.4 0.4 0.8 0.8 1.3 1.3zm19.1 9.4q0 0 0.1 0c3.7 0.3 6.8 0 9.9-1.1q-2.2-0.7-4.1-1.7c-5.6 0.7-9.3 0.9-12.9 0.5q1.5 0.6 3.2 1.2 1.9 0.6 3.8 1.1zm57.9-2.3c-3.6 0.4-7.3 0.2-12.9-0.5q-1.8 1-4 1.8c3 1 6.1 1.3 9.8 1q0 0 0 0 2-0.5 3.9-1.1 1.6-0.6 3.2-1.2zm13.4-8.4q1.7-1.7 2.9-3.5c-7.7 2.8-15.4 4.5-22.3 5.3q-0.6 1.1-1.5 2.1c6.2 0.3 13-0.7 19.6-2.6q0.7-0.7 1.3-1.3zm26.4-25.6q-0.1-4.1-2-8c-5.8 6-12.4 11.4-19.7 16.1 0.9 1.8 1.5 3.7 1.6 5.6 6.7-3.5 13.6-8 20.1-13.7zm16.4-18.5q-0.1-5.1-2.5-10.1-0.4 0.8-0.9 1.5c-4 6.6-8.8 12.7-14.1 18.3q1.9 3.8 2.2 7.8c5.5-4.9 10.7-10.7 15.3-17.5zm5.7-9.6q-0.1-5.6-2.7-11-2.2 4.8-4.8 9.4 2.4 4.7 2.9 9.6 2.4-3.8 4.6-8zm-8.1-38.3c1.7-7.2 2.5-14.3 2.5-21.1-4.3-3.8-9.6-7.3-15.6-10.4-0.1 7.4-0.9 15.1-2.4 22.9 5.8 2.9 10.9 6.2 15.2 9.8q0.1-0.6 0.3-1.2zm-49.2-91.2q-0.5-0.2-1-0.3 0.1 0 0.2 0.1 0.4 0.1 0.8 0.2zm-73.2-0.3q-0.5 0.2-0.9 0.4 0.4-0.2 0.7-0.2 0.1-0.1 0.2-0.2zm-49.8 92.5c4.3-3.6 9.4-6.9 15.2-9.8-1.5-7.7-2.3-15.3-2.4-22.6-6.1 3.1-11.3 6.5-15.6 10.2 0 6.9 0.8 14 2.5 21.2q0.1 0.5 0.3 1zm-13 26.6q1.6 4.5 3.5 8.5 0.5-5.2 3.2-10.2-2.3-5.3-3.9-10.8c-1.9 3.7-2.8 7.6-2.8 11.6q0 0.5 0 0.9zm9.7 25.6q-0.6-2.4-0.6-4.9 0-0.1 0-0.1-2.3-3.5-4.4-7.3 0.2 1.7 0.6 3.5 2 4.5 4.4 8.8zm17.5 21.4q-1.6-3.8-1.7-7.8c-5.4-4.8-10.6-10.4-15.2-16.9q0.3 4.1 2.1 7.9 2 3.3 4.3 6.4 0.2 0.1 0.3 0.2c2.9 3.8 6.4 7.2 10.2 10.2zm11.6 11.6c4 2.5 8.5 4.6 13.1 6.2q-2.1-2.2-3.4-4.5c-6.1-2.4-12.1-5.4-17.6-9.2q1.6 2.3 3.9 4.4 1.9 1.6 4 3.1zm128.2-7.4c-5.6 3.7-11.6 6.8-17.7 9.1q-1.3 2.4-3.4 4.6c4.6-1.6 9.1-3.7 13.1-6.2q2.1-1.5 4.1-3.2 2.2-2.1 3.9-4.3zm18.5-20.9c1.1-2.6 1.8-5.2 2-7.9-4.5 6.5-9.7 12.1-15.2 16.9q0 3.9-1.7 7.8c3.8-3.1 7.3-6.4 10.3-10.3q0.1-0.1 0.2-0.2 2.3-3.1 4.4-6.3zm7.1-13.5q0.4-1.7 0.6-3.5-2.1 3.9-4.5 7.4 0 2.5-0.5 4.9c1.6-2.9 3-5.8 4.4-8.8zm-5.5-91.9q-2.2-2.9-5-5.6 1.8 4 3.2 8.2c2.6 2.3 4.8 4.6 6.7 7.1-1.4-3.3-3.1-6.6-4.9-9.7zm-34.7-35.5q-2-1.2-4.1-2.4c-3.5-1.6-7.3-3.1-11.3-4.3q4.1 4.2 7 9.9c6 1.7 11.7 3.8 16.8 6.2-2.4-3.6-5.2-6.8-8.4-9.4zm-52.9-15.1v1.9q8.6 0.1 16.7 1.1-0.9-1.1-1.8-1.8-7.4-1.2-14.9-1.2zm-16 1.2q-1 0.7-1.8 1.8c5.4-0.7 11-1 16.7-1.1v-1.9q-7.6 0-14.9 1.2zm-77.7 59.3c1.9-2.5 4.1-4.9 6.8-7.1q1.3-4.3 3.2-8.3-2.8 2.6-4.9 5.4-2.8 4.9-5.1 10zm-8.8 41.5c0 6.9 0.7 13.7 2 20.3q0.5-5.5 3.3-10.7c-1.8-6.6-3-13.2-3.3-19.9q-1.7 4.1-2 8.3 0 1 0 2zm0.6-11.5q0.6-1.2 1.2-2.5 0-3 0.1-6-0.8 4.2-1.3 8.5z"/><g clip-path="url(#cp1)"><path class="a" d="m251.5 124c-1.6 0.2-2.6 1.2-2.3 2.4 0.3 1.1 1.9 2 3.4 1.8 11-0.9 19.9-2.5 26-4.9 6.4-2.5 10-5.9 10-10 0-8.7-16.6-18.8-43.2-28-25.8-8.9-61.4-17.3-100.6-23.2-19.8-2.9-38.6-4.9-55.7-6-24.8-1.6-46-1.3-61.4 0.8-16.2 2.2-26.1 6.6-27.2 13q0 0.5-0.1 1.1c0 3.6 2.7 7.3 7.7 11.1 4.8 3.6 11.7 7.4 20.5 11.1 1.4 0.6 3.2 0.3 3.9-0.7 0.7-1 0.1-2.3-1.3-2.9-8.3-3.5-14.7-7-19.1-10.3-3.8-2.9-5.8-5.6-5.8-7.9q0-0.4 0-0.7c0.8-4.5 9.1-7.7 23-9.6 14.8-2 35.5-2.3 59.8-0.8 16.9 1.1 35.5 3.1 55.1 6 38.7 5.7 73.7 14.1 99.1 22.8 24.3 8.4 39.4 17 39.4 23.8 0 2.6-2.5 4.8-7.2 6.6-5.5 2.1-13.7 3.7-24 4.5z"/></g><g clip-path="url(#cp2)"><path fill-rule="evenodd" class="a" d="m248.8-2.2h0.1c1 12.9 11.3 23.2 24.3 24.2v0.2c-13 0.9-23.3 11.3-24.3 24.2h-0.1c-1-12.9-11.3-23.3-24.2-24.2v-0.2c12.9-1 23.2-11.3 24.2-24.2z"/></g><path fill-rule="evenodd" class="a" d="m273.5 42.4h0.1c0.4 5.5 4.8 9.9 10.3 10.3v0.1c-5.5 0.4-9.9 4.7-10.3 10.2h-0.1c-0.4-5.5-4.8-9.8-10.3-10.2v-0.1c5.5-0.4 9.9-4.8 10.3-10.3z"/><path fill-rule="evenodd" class="b" d="m11.5 77.9l4.6-0.7 4 24.9 7.5-1.3 0.7 4.2-12.1 1.9z"/><path fill-rule="evenodd" class="b" d="m32.1 81.8q-0.5-3.5 1.1-5.6 1.5-2.2 4.9-2.6 3.4-0.5 5.4 1.2 2 1.6 2.5 5.2l2.1 15.1q0.4 3.5-1.1 5.7-1.5 2.1-4.9 2.6-3.4 0.4-5.4-1.2-2.1-1.7-2.5-5.2zm6.6 14.8q0.2 1.6 1 2.1 0.7 0.6 1.8 0.5 1.1-0.2 1.6-0.9 0.6-0.8 0.4-2.3l-2.2-15.8q-0.2-1.5-0.9-2.1-0.7-0.6-1.8-0.4-1.1 0.1-1.7 0.9-0.5 0.7-0.3 2.3z"/><path fill-rule="evenodd" class="b" d="m72 99.6l-4.6 0.4-1.3-5.2-5.7 0.6-0.2 5.4-4.2 0.4 1.6-29.7 6.7-0.7zm-11.5-8.2l4.5-0.4-3.8-14.6z"/><path fill-rule="evenodd" class="b" d="m81.9 77.4l1.6 21.2-4.1 0.3-2.2-29.3 5.7-0.4 6.1 17.1-1.3-17.5 4.1-0.3 2.2 29.3-4.8 0.4z"/><path fill-rule="evenodd" class="b" d="m127.5 85.4l0.1 3.9q0.1 3.5-1.6 5.5-1.7 2-5.1 2.1-3.4 0.1-5.2-1.8-1.8-1.8-1.9-5.4l-0.4-15.3q-0.2-3.5 1.5-5.5 1.7-2 5.1-2.1 3.4-0.1 5.2 1.8 1.8 1.8 1.9 5.4l0.1 2.8-4.4 0.2-0.1-3.2q0-1.6-0.7-2.2-0.6-0.6-1.7-0.6-1.1 0-1.8 0.7-0.6 0.7-0.5 2.3l0.4 15.9q0.1 1.5 0.8 2.2 0.6 0.6 1.7 0.5 1.1 0 1.7-0.7 0.7-0.6 0.6-2.2l-0.1-4.2z"/><path fill-rule="evenodd" class="b" d="m135.4 73.9q0-3.6 1.8-5.5 1.8-1.9 5.2-1.9 3.4-0.1 5.3 1.9 1.8 1.9 1.8 5.4v15.3q0 3.6-1.8 5.5-1.8 1.9-5.2 1.9-3.4 0-5.2-1.9-1.8-1.9-1.8-5.5zm4.6 15.6q0 1.6 0.7 2.3 0.6 0.6 1.7 0.6 1.1 0 1.8-0.6 0.6-0.7 0.6-2.3v-15.9q0-1.6-0.7-2.2-0.6-0.7-1.7-0.7-1.1 0-1.8 0.7-0.6 0.6-0.6 2.2z"/><path fill-rule="evenodd" class="b" d="m167.8 88l3.7-20.7 6.5 0.1-0.9 29.4-4.4-0.1 0.6-21.1-3.8 21-4.4-0.1-2.8-20.9-0.6 20.8-4-0.2 0.9-29.3 6.4 0.2z"/><path fill-rule="evenodd" class="b" d="m195.9 89.4l4.6-20.6 6.4 0.4-2 29.3-4.4-0.3 1.5-21-4.6 20.8-4.4-0.3-2-20.9-1.4 20.7-4-0.3 1.9-29.3 6.4 0.4z"/><path fill-rule="evenodd" class="b" d="m228.3 100.8l-4.6-0.5-0.3-5.4-5.6-0.5-1.3 5.2-4.3-0.4 7.6-28.8 6.8 0.7zm-9.6-10.4l4.4 0.5-0.7-15z"/><path fill-rule="evenodd" class="b" d="m242.5 81l-2.8 21.2-4.1-0.6 3.8-29.1 5.8 0.7 2.4 18.1 2.3-17.5 4 0.6-3.8 29.1-4.7-0.6z"/><path fill-rule="evenodd" class="b" d="m263.3 75.7l7.2 1.2q3.4 0.5 4.8 2.6 1.4 2.1 0.8 5.7l-2.3 14.6q-0.6 3.6-2.6 5.1-1.9 1.6-5.4 1l-7.2-1.1zm3.9 4.8l-3.3 20.8 2.6 0.4q1 0.1 1.8-0.4 0.7-0.5 0.9-2.1l2.5-15.1q0.2-1.5-0.3-2.3-0.5-0.7-1.6-0.9z"/><path class="c" d="m11.5 77.9l4.6-0.7 4 24.8 7.5-1.2 0.7 4.2-12.1 2z"/><path fill-rule="evenodd" class="c" d="m32.1 81.8q-0.5-3.5 1.1-5.6 1.5-2.2 4.9-2.6 3.4-0.5 5.4 1.2 2 1.6 2.5 5.2l2.1 15.1q0.4 3.5-1.1 5.7-1.5 2.1-4.9 2.6-3.4 0.4-5.4-1.2-2.1-1.7-2.5-5.2zm6.6 14.8q0.2 1.6 1 2.1 0.7 0.6 1.8 0.4 1.1-0.1 1.6-0.8 0.6-0.8 0.4-2.3l-2.2-15.8q-0.2-1.6-0.9-2.1-0.7-0.6-1.8-0.4-1.1 0.1-1.6 0.9-0.6 0.7-0.4 2.2z"/><path fill-rule="evenodd" class="c" d="m72 99.5l-4.6 0.5-1.3-5.2-5.7 0.6-0.2 5.4-4.2 0.4 1.6-29.7 6.7-0.7zm-11.5-8.2l4.5-0.4-3.8-14.6z"/><path class="c" d="m81.9 77.4l1.6 21.2-4.1 0.3-2.2-29.3 5.7-0.5 6.1 17.2-1.3-17.5 4.1-0.3 2.2 29.3-4.8 0.3z"/><path class="c" d="m127.5 85.4l0.1 3.9q0.1 3.5-1.6 5.5-1.7 2-5.1 2.1-3.4 0.1-5.2-1.8-1.8-1.8-1.9-5.4l-0.5-15.3q-0.1-3.5 1.6-5.5 1.7-2 5.1-2.1 3.4-0.1 5.2 1.8 1.8 1.8 1.9 5.4l0.1 2.9-4.4 0.1-0.1-3.2q0-1.6-0.7-2.2-0.6-0.6-1.7-0.6-1.1 0.1-1.8 0.7-0.6 0.7-0.5 2.3l0.5 15.8q0 1.6 0.7 2.3 0.6 0.6 1.7 0.5 1.1 0 1.7-0.7 0.7-0.6 0.6-2.2l-0.1-4.2z"/><path fill-rule="evenodd" class="c" d="m135.4 73.9q0-3.6 1.8-5.5 1.8-1.9 5.2-1.9 3.4-0.1 5.2 1.9 1.9 1.9 1.9 5.4v15.3q0 3.6-1.8 5.5-1.8 1.9-5.2 1.9-3.4 0-5.2-1.9-1.8-1.9-1.8-5.5zm4.6 15.6q0 1.6 0.7 2.3 0.6 0.6 1.7 0.6 1.1 0 1.8-0.6 0.6-0.7 0.6-2.3v-15.9q0-1.6-0.7-2.2-0.6-0.7-1.7-0.7-1.1 0-1.8 0.7-0.6 0.6-0.6 2.2z"/><path class="c" d="m167.8 88l3.7-20.8 6.5 0.2-0.9 29.4-4.4-0.1 0.6-21.1-3.8 21-4.4-0.1-2.8-20.9-0.6 20.8-4-0.2 0.9-29.4 6.4 0.2z"/><path class="c" d="m195.9 89.4l4.6-20.6 6.4 0.4-2 29.3-4.3-0.3 1.4-21-4.6 20.8-4.4-0.3-2-20.9-1.4 20.7-4-0.3 1.9-29.3 6.4 0.4z"/><path fill-rule="evenodd" class="c" d="m228.3 100.8l-4.6-0.5-0.3-5.4-5.6-0.5-1.3 5.2-4.3-0.4 7.6-28.8 6.8 0.6zm-9.6-10.3l4.4 0.5-0.7-15z"/><path class="c" d="m242.5 81l-2.8 21.2-4.1-0.6 3.8-29.1 5.8 0.7 2.4 18.1 2.3-17.5 4 0.6-3.8 29.1-4.7-0.6z"/><path fill-rule="evenodd" class="c" d="m263.3 75.7l7.2 1.2q3.4 0.5 4.8 2.6 1.4 2.1 0.8 5.6l-2.3 14.7q-0.6 3.5-2.6 5.1-1.9 1.6-5.4 1l-7.2-1.1zm3.9 4.8l-3.3 20.8 2.6 0.4q1.1 0.1 1.8-0.4 0.7-0.5 0.9-2.1l2.5-15.1q0.2-1.5-0.3-2.3-0.5-0.7-1.6-0.9z"/><path fill-rule="evenodd" class="d" d="m58.4 118.8l-5.3 0.7 0.6 4.3 6.1-0.8 0.2 1.3-7.7 1-1.6-12.1 7.6-1 0.2 1.3-6.1 0.8 0.6 3.9 5.2-0.7z"/><path fill-rule="evenodd" class="d" d="m67.3 117.6l1.6-3.5 1.8-0.2-2.5 4.8 3.6 4.3-1.8 0.2-2.5-3.2-1.7 3.6-1.8 0.2 2.6-4.9-3.5-4.1 1.8-0.2z"/><path fill-rule="evenodd" class="d" d="m83.7 117.3q0.2 2.1-0.6 3.4-0.8 1.4-2.4 1.5-1.7 0.2-2.7-0.8l0.4 4.4-1.6 0.2-1.2-12.6 1.5-0.1 0.1 1q0.9-1.3 2.5-1.5 1.7-0.1 2.7 1 1.1 1.2 1.3 3.4zm-1.5-0.1q-0.2-1.5-0.9-2.3-0.8-0.9-1.9-0.7-1.4 0.1-2 1.4l0.4 4.3q0.8 1.2 2.3 1.1 1.1-0.1 1.6-1.1 0.6-0.9 0.5-2.7z"/><path fill-rule="evenodd" class="d" d="m88.4 108.4l1.5-0.1 1.1 12.9-1.6 0.1z"/><path fill-rule="evenodd" class="d" d="m95.9 116.2q-0.1-1.4 0.4-2.5 0.4-1.1 1.3-1.7 0.9-0.7 2.1-0.7 1.9-0.2 3.1 1 1.2 1.3 1.4 3.4v0.1q0.1 1.3-0.4 2.4-0.4 1.1-1.3 1.8-0.9 0.6-2.1 0.7-1.9 0.1-3.1-1.1-1.3-1.2-1.4-3.3zm1.6 0q0.1 1.6 0.8 2.4 0.8 0.9 2 0.8 1.2 0 1.8-1 0.6-1 0.5-2.7-0.1-1.5-0.8-2.4-0.8-0.8-2-0.8-1.1 0.1-1.8 1.1-0.6 0.9-0.5 2.6z"/><path fill-rule="evenodd" class="d" d="m113.6 112.1q-0.3-0.1-0.8-0.1-1.5 0.1-2 1.4l0.3 6.5-1.5 0.1-0.5-9.1 1.6-0.1v1.1q0.7-1.3 2.1-1.4 0.5 0 0.7 0.1z"/><path fill-rule="evenodd" class="d" d="m122.4 119.6q-1.9 0.1-3.1-1.1-1.2-1.2-1.3-3.2v-0.3q0-1.4 0.5-2.4 0.4-1.1 1.4-1.7 0.9-0.7 2-0.7 1.7-0.1 2.8 1.1 1 1.1 1 3.3l0.1 0.6-6.2 0.2q0.1 1.4 0.9 2.2 0.7 0.8 1.9 0.7 0.8 0 1.4-0.3 0.5-0.4 1-1l0.9 0.7q-1.1 1.8-3.3 1.9zm-0.5-8.1q-0.9 0-1.6 0.7-0.6 0.7-0.7 1.9l4.6-0.1v-0.1q-0.1-1.2-0.7-1.8-0.6-0.7-1.6-0.6z"/><path fill-rule="evenodd" class="d" d="m141.3 116.8l2.1-6.8h1.6l-3.6 10.5q-0.8 2.3-2.7 2.3h-0.3l-0.5-0.1-0.1-1.3h0.5q0.8 0 1.2-0.3 0.4-0.3 0.7-1.2l0.4-0.9-3.3-9h1.7z"/><path fill-rule="evenodd" class="d" d="m149.3 114.5q0-1.4 0.5-2.4 0.6-1.1 1.5-1.7 1-0.5 2.2-0.5 1.8 0 3 1.3 1.1 1.3 1.1 3.5v0.1q-0.1 1.3-0.6 2.3-0.5 1.1-1.5 1.7-0.9 0.5-2.1 0.5-1.9 0-3-1.3-1.2-1.3-1.1-3.4zm1.5 0.2q0 1.5 0.7 2.4 0.7 0.9 1.9 1 1.2 0 1.9-0.9 0.7-1 0.7-2.6 0-1.5-0.7-2.5-0.7-0.9-1.9-0.9-1.1 0-1.8 0.9-0.7 0.9-0.8 2.6z"/><path fill-rule="evenodd" class="d" d="m168.2 118.6q-0.9 1.1-2.7 1-1.4 0-2.1-0.9-0.8-0.9-0.7-2.5l0.2-6 1.5 0.1-0.2 5.9q0 2 1.6 2.1 1.8 0 2.5-1.3l0.2-6.6 1.5 0.1-0.3 9.1-1.4-0.1z"/><path fill-rule="evenodd" class="d" d="m180 112.3q-0.3-0.1-0.7-0.1-1.6-0.1-2.2 1.2l-0.3 6.5-1.5-0.1 0.4-9.1 1.5 0.1v1q0.8-1.2 2.2-1.1 0.5 0 0.7 0.2z"/><path fill-rule="evenodd" class="d" d="m193.6 119.6l5.8 0.4-0.1 1.3-7.4-0.5 0.9-12.3 1.7 0.2z"/><path fill-rule="evenodd" class="d" d="m204.1 117.1q0.1-1.4 0.7-2.4 0.7-1 1.6-1.5 1-0.5 2.2-0.4 1.9 0.2 2.9 1.6 1 1.4 0.8 3.5v0.1q-0.1 1.3-0.7 2.3-0.6 1.1-1.6 1.6-1 0.4-2.2 0.3-1.9-0.1-2.9-1.5-1-1.4-0.8-3.5zm1.5 0.3q-0.1 1.5 0.5 2.5 0.6 1 1.8 1.1 1.2 0.1 1.9-0.8 0.8-0.8 1-2.5 0.1-1.5-0.5-2.5-0.6-1-1.8-1.1-1.1-0.1-1.9 0.7-0.8 0.9-1 2.6z"/><path fill-rule="evenodd" class="d" d="m222.6 123.6q-0.1-0.3-0.1-1-1.2 1-2.7 0.9-1.4-0.2-2.2-1-0.7-0.9-0.6-2.1 0.2-1.4 1.3-2 1.2-0.7 3.1-0.5l1.5 0.2 0.1-0.7q0.1-0.8-0.3-1.4-0.4-0.5-1.4-0.6-0.8-0.1-1.4 0.3-0.6 0.3-0.7 0.9l-1.6-0.2q0.1-0.6 0.7-1.2 0.5-0.6 1.4-0.9 0.9-0.3 1.8-0.1 1.6 0.1 2.4 1 0.8 0.9 0.7 2.3l-0.5 4.1q-0.1 1.3 0.1 2.1v0.1zm-2.4-1.5q0.7 0.1 1.4-0.2 0.7-0.3 1-0.9l0.3-1.8-1.3-0.2q-2.8-0.3-3 1.4-0.1 0.7 0.4 1.2 0.4 0.4 1.2 0.5z"/><path fill-rule="evenodd" class="d" d="m232.1 115.6l-0.1 1.1q1.2-1.1 2.9-0.9 2.8 0.4 2.4 3.6l-0.8 6-1.5-0.2 0.8-6q0.1-1-0.3-1.5-0.4-0.5-1.3-0.7-0.7-0.1-1.4 0.3-0.6 0.3-1 0.9l-0.8 6.4-1.6-0.2 1.2-9z"/><path class="c" d="m58.4 118.8l-5.3 0.7 0.6 4.3 6.1-0.8 0.2 1.3-7.7 1-1.6-12.1 7.6-1 0.2 1.3-6.1 0.8 0.6 3.9 5.2-0.7z"/><path class="c" d="m67.3 117.7l1.6-3.6 1.8-0.2-2.5 4.8 3.6 4.2-1.8 0.3-2.4-3.2-1.8 3.6-1.8 0.2 2.6-4.9-3.5-4.1 1.8-0.2z"/><path fill-rule="evenodd" class="c" d="m83.7 117.3q0.2 2.1-0.6 3.4-0.8 1.4-2.5 1.6-1.6 0.1-2.6-0.9l0.4 4.4-1.6 0.2-1.2-12.6 1.5-0.1 0.1 1q0.9-1.3 2.5-1.5 1.7-0.1 2.7 1 1.1 1.2 1.3 3.4zm-1.6-0.1q-0.1-1.5-0.8-2.3-0.8-0.8-1.9-0.7-1.4 0.1-2 1.4l0.4 4.4q0.8 1.1 2.3 1 1.1-0.1 1.6-1.1 0.6-0.9 0.4-2.7z"/><path class="c" d="m91 121.2l-1.6 0.1-1-12.9 1.5-0.1z"/><path fill-rule="evenodd" class="c" d="m95.9 116.2q-0.1-1.4 0.4-2.5 0.4-1.1 1.3-1.7 0.9-0.7 2.1-0.7 1.9-0.2 3.1 1.1 1.2 1.2 1.4 3.3v0.1q0.1 1.3-0.4 2.4-0.4 1.1-1.3 1.8-0.9 0.6-2.1 0.7-1.9 0.1-3.1-1.1-1.3-1.2-1.4-3.3zm1.6 0.1q0.1 1.5 0.8 2.3 0.8 0.9 2 0.8 1.1-0.1 1.8-1 0.6-1 0.5-2.7-0.1-1.5-0.9-2.3-0.7-0.9-1.9-0.9-1.2 0.1-1.8 1.1-0.6 0.9-0.5 2.7z"/><path class="c" d="m113.6 112.1q-0.3-0.1-0.8-0.1-1.5 0.1-2 1.4l0.3 6.5-1.5 0.1-0.5-9.1 1.6-0.1v1.1q0.7-1.3 2.1-1.4 0.5 0 0.7 0.1z"/><path fill-rule="evenodd" class="c" d="m122.4 119.6q-1.9 0.1-3.1-1.1-1.2-1.2-1.3-3.2v-0.3q0-1.4 0.5-2.4 0.4-1.1 1.4-1.8 0.9-0.6 2-0.6 1.7-0.1 2.8 1.1 1 1.1 1 3.3l0.1 0.6-6.2 0.2q0.1 1.4 0.9 2.2 0.7 0.8 1.9 0.7 0.8 0 1.4-0.3 0.5-0.4 1-1l0.9 0.7q-1.1 1.9-3.3 1.9zm-0.5-8.1q-0.9 0-1.6 0.7-0.6 0.7-0.7 1.9l4.6-0.1v-0.1q-0.1-1.2-0.7-1.8-0.6-0.7-1.6-0.6z"/><path class="c" d="m141.3 116.8l2.1-6.8h1.6l-3.6 10.5q-0.8 2.3-2.7 2.3h-0.3l-0.6-0.1v-1.3h0.5q0.8 0 1.2-0.3 0.4-0.3 0.7-1.2l0.4-0.9-3.3-9h1.7z"/><path fill-rule="evenodd" class="c" d="m149.3 114.5q0-1.4 0.5-2.4 0.6-1.1 1.5-1.7 1-0.5 2.2-0.5 1.8 0 3 1.3 1.1 1.3 1.1 3.5v0.1q-0.1 1.3-0.6 2.3-0.5 1.1-1.5 1.7-0.9 0.5-2.1 0.5-1.9 0-3-1.3-1.2-1.3-1.1-3.4zm1.5 0.2q0 1.5 0.7 2.4 0.7 0.9 1.9 1 1.2 0 1.9-0.9 0.7-1 0.7-2.6 0-1.5-0.7-2.5-0.7-0.9-1.8-0.9-1.2 0-1.9 0.9-0.8 0.9-0.8 2.6z"/><path class="c" d="m168.3 118.6q-1 1.1-2.7 1-1.5 0-2.2-0.9-0.8-0.9-0.7-2.6l0.2-5.9 1.5 0.1-0.2 5.9q-0.1 2 1.6 2.1 1.8 0 2.5-1.3l0.2-6.6 1.5 0.1-0.3 9.1-1.4-0.1z"/><path class="c" d="m180 112.3q-0.3-0.1-0.7-0.1-1.6-0.1-2.2 1.2l-0.3 6.5-1.6-0.1 0.5-9.1 1.5 0.1v1q0.8-1.1 2.2-1.1 0.5 0 0.7 0.2z"/><path class="c" d="m193.6 119.6l5.8 0.4-0.1 1.3-7.4-0.5 0.9-12.3 1.7 0.2z"/><path fill-rule="evenodd" class="c" d="m204.1 117.1q0.1-1.4 0.7-2.4 0.7-1 1.6-1.5 1-0.5 2.2-0.4 1.9 0.2 2.9 1.6 1 1.4 0.8 3.5v0.1q-0.1 1.3-0.7 2.3-0.6 1-1.6 1.5-1 0.6-2.2 0.4-1.9-0.1-2.9-1.5-1-1.4-0.8-3.5zm1.5 0.3q-0.1 1.5 0.5 2.5 0.6 1 1.8 1.1 1.2 0.1 1.9-0.8 0.8-0.8 1-2.5 0.1-1.5-0.5-2.5-0.6-1-1.8-1.1-1.1-0.1-1.9 0.8-0.8 0.8-1 2.5z"/><path fill-rule="evenodd" class="c" d="m222.6 123.6q-0.1-0.3-0.1-1-1.2 1-2.7 0.9-1.4-0.2-2.1-1-0.8-0.9-0.7-2.1 0.2-1.4 1.3-2 1.2-0.7 3.2-0.5l1.5 0.2v-0.7q0.1-0.8-0.3-1.4-0.4-0.5-1.4-0.6-0.8-0.1-1.4 0.2-0.6 0.4-0.7 1l-1.5-0.2q0-0.6 0.6-1.2 0.5-0.6 1.4-0.9 0.8-0.2 1.8-0.1 1.6 0.1 2.4 1 0.8 0.9 0.7 2.3l-0.5 4.1q-0.1 1.3 0.1 2v0.2zm-2.4-1.5q0.7 0.1 1.4-0.2 0.7-0.3 1-0.9l0.3-1.8-1.3-0.2q-2.8-0.3-3 1.4-0.1 0.7 0.4 1.2 0.4 0.4 1.2 0.5z"/><path class="c" d="m232.1 115.6l-0.1 1.1q1.2-1.1 2.9-0.9 2.8 0.4 2.4 3.6l-0.8 6-1.5-0.2 0.8-6q0.1-1-0.3-1.5-0.4-0.5-1.3-0.7-0.7-0.1-1.4 0.3-0.6 0.3-1 0.9l-0.8 6.4-1.6-0.2 1.2-9z"/></svg>